<?xml version="1.0" encoding="UTF-8" standalone="no"?>
<!-- Created with Inkscape (http://www.inkscape.org/) -->

<svg
   width="500.00003mm"
   height="352.94281mm"
   viewBox="0 0 500.00003 352.94281"
   version="1.1"
   id="svg5"
   xml:space="preserve"
   inkscape:version="1.2.1 (9c6d41e410, 2022-07-14)"
   sodipodi:docname="auidify-logo-new.svg"
   xmlns:inkscape="http://www.inkscape.org/namespaces/inkscape"
   xmlns:sodipodi="http://sodipodi.sourceforge.net/DTD/sodipodi-0.dtd"
   xmlns="http://www.w3.org/2000/svg"
   xmlns:svg="http://www.w3.org/2000/svg"><sodipodi:namedview
     id="namedview7"
     pagecolor="#ffffff"
     bordercolor="#000000"
     borderopacity="0.25"
     inkscape:showpageshadow="2"
     inkscape:pageopacity="0.0"
     inkscape:pagecheckerboard="0"
     inkscape:deskcolor="#d1d1d1"
     inkscape:document-units="mm"
     showgrid="false"
     inkscape:zoom="0.35355339"
     inkscape:cx="1312.3902"
     inkscape:cy="766.50375"
     inkscape:window-width="1920"
     inkscape:window-height="1057"
     inkscape:window-x="1912"
     inkscape:window-y="-8"
     inkscape:window-maximized="1"
     inkscape:current-layer="layer1" /><defs
     id="defs2" /><g
     inkscape:label="Layer 1"
     inkscape:groupmode="layer"
     id="layer1"
     transform="translate(-3.5552977,-50.602334)"><path
        class="logo"
       style="fill:#ffffff;stroke-width:0.652037"
       d="m 380.71568,403.34859 c -2.05026,-0.79189 -3.71365,-2.95945 -9.38189,-12.22558 -7.18647,-11.748 -23.97781,-45.65911 -33.65557,-67.96939 -4.16412,-9.59957 -25.16916,-53.50815 -35.7152,-74.65839 -15.69594,-31.47843 -26.15767,-54.10741 -39.79108,-86.06906 -5.85354,-13.72282 -12.75974,-28.49613 -13.92136,-29.77969 -3.02238,-3.33972 -3.9368,-1.28301 -17.87812,40.2123 -6.14486,18.28969 -11.91224,35.01447 -12.81642,37.16618 -0.90419,2.15174 -2.88438,7.28654 -4.40043,11.41068 -7.84252,21.33426 -20.10842,52.71539 -22.14152,56.64697 -1.25177,2.42065 -3.77807,3.65497 -5.54514,2.70926 -1.84904,-0.98958 -1.96186,-2.87738 -0.39721,-6.64616 0.79489,-1.91464 2.85665,-6.85546 4.58168,-10.9796 3.47002,-8.29602 18.11704,-46.68334 23.26194,-60.96561 3.11618,-8.6505 15.08275,-44.36316 21.73922,-64.87781 1.68727,-5.2 3.77226,-11.13286 4.63332,-13.18413 0.86106,-2.05126 1.56556,-4.79438 1.56556,-6.09582 0,-2.36454 -1.6497,-6.74207 -2.84964,-7.5616 -2.0753,-1.41738 -6.8664,11.27928 -18.33355,48.5848 -3.4126,11.10203 -15.72473,46.39191 -20.84996,59.76155 -2.40584,6.27586 -6.22472,16.26182 -8.48639,22.19098 -2.26168,5.9292 -4.6949,12.09095 -5.40716,13.69281 -0.71226,1.60188 -2.24935,5.55325 -3.41578,8.78084 -3.33773,9.23587 -26.56763,66.92097 -27.98288,69.48793 -0.31049,0.56314 -1.52189,3.3506 -2.69203,6.19436 -3.44271,8.36683 -5.46823,10.37386 -8.39822,8.32161 -1.96203,-1.37428 -1.6836,-3.21681 1.52297,-10.0787 3.18996,-6.8263 10.66685,-24.93715 19.07887,-46.21357 3.04843,-7.71036 6.23904,-15.63263 7.09024,-17.60504 0.85123,-1.97243 4.67129,-11.8019 8.48903,-21.84328 3.81777,-10.0414 9.27412,-24.39479 12.12525,-31.89644 4.93028,-12.97214 7.71315,-20.58343 14.56198,-39.82778 2.69114,-7.5618 7.5483,-22.63532 19.01464,-59.00948 1.97837,-6.27587 4.61937,-13.98866 5.86888,-17.13955 1.24952,-3.15089 2.29324,-6.231774 2.31938,-6.846407 0.0262,-0.614631 -0.58625,-2.550814 -1.36089,-4.302618 -1.34717,-3.046578 -1.46139,-3.137157 -2.62653,-2.082721 -2.56714,2.323227 -5.34141,9.175758 -11.10805,27.437126 -21.63679,68.51785 -33.04024,99.97102 -63.47308,175.0723 -10.55144,26.03862 -17.06713,41.26024 -25.39879,59.33548 -10.28159,22.30555 -22.29826,43.72624 -26.11332,46.54915 -1.68084,1.24371 -1.96045,1.27207 -3.586212,0.36365 -3.152876,-1.76172 -2.666404,-3.48461 3.680622,-13.03555 6.04822,-9.10131 15.31638,-26.90429 23.84635,-45.80594 2.71801,-6.02284 4.94183,-11.06576 4.94183,-11.20645 0,-0.14072 2.6064,-6.36278 5.792,-13.82682 7.87929,-18.46161 24.67305,-60.31646 33.9621,-84.64318 1.50631,-3.94484 3.74366,-9.74881 4.97189,-12.89772 8.41723,-21.57996 25.06322,-70.21639 31.18009,-91.1024 4.13699,-14.12562 11.53858,-35.447596 14.17576,-40.836431 l 2.91294,-5.952385 -1.34374,-2.668974 c -0.76943,-1.528308 -1.81801,-2.676732 -2.45348,-2.687124 -3.1614,-0.0517 -9.96858,15.797877 -17.77485,41.386284 -6.10027,19.99634 -22.5623,69.31155 -27.7514,83.13489 -12.89762,34.35801 -13.85669,36.51416 -16.24168,36.51416 -1.57276,0 -3.95625,-1.87467 -3.95625,-3.11165 0,-0.59488 2.1784,-6.51993 4.84091,-13.1668 10.38835,-25.9342 16.8618,-44.33314 29.37258,-83.48343 11.90659,-37.259534 12.01963,-37.60329 15.69104,-47.719683 8.11008,-22.34682 11.52569,-27.767239 16.34299,-25.935701 2.16019,0.821307 3.36947,2.259822 7.71603,9.178759 6.42579,10.228737 11.32684,20.877381 28.9777,62.960735 4.68923,11.18006 9.88099,23.35689 11.53727,27.05959 1.65627,3.70271 3.40077,7.75916 3.87664,9.01432 0.47588,1.25517 2.37989,5.65644 4.23117,9.78058 1.85128,4.12415 4.36112,9.78142 5.57745,12.57173 4.49858,10.31986 15.91921,34.111 28.39537,59.1525 7.05757,14.16552 16.19853,33.09093 20.31328,42.05646 32.10656,69.95629 40.90276,87.49525 51.46262,102.61287 1.93722,2.77331 2.31212,3.75495 1.79975,4.71235 -0.9047,1.6904 -2.66465,2.47984 -4.20352,1.88546 z M 112.547,402.33932 c -2.22954,-1.56164 -1.75694,-3.57242 1.99535,-8.48978 1.8945,-2.4827 4.78921,-6.86137 6.43269,-9.73035 1.64351,-2.86895 3.98124,-6.9597 5.195,-9.09052 1.21374,-2.13081 3.9699,-7.70574 6.12479,-12.38871 3.69581,-8.03172 4.03171,-8.52566 5.92387,-8.71083 2.75579,-0.26968 3.76126,1.10609 3.20682,4.3878 -0.24225,1.43357 -3.4748,8.70578 -7.18352,16.16048 -9.54525,19.18632 -16.17961,28.87692 -19.76959,28.87692 -0.26194,0 -1.1284,-0.45675 -1.92541,-1.01501 z m 17.78598,0.39368 c -1.63853,-0.30358 -1.98934,-0.70646 -2.16064,-2.48132 -0.15747,-1.6303 0.31609,-2.75729 2.05321,-4.88744 2.31006,-2.83273 9.87511,-15.20745 14.64734,-23.95978 6.89137,-12.63883 27.17,-60.95543 31.88171,-75.96247 1.87979,-5.98725 2.96526,-7.49844 5.38606,-7.49844 2.06603,0 3.28955,1.07921 3.28953,2.90158 0,2.30413 -3.78983,13.06285 -10.56652,29.99678 -14.34154,35.83719 -25.2566,58.5194 -36.13577,75.09254 -3.94506,6.0098 -5.56619,7.32266 -8.39492,6.79855 z m 233.99219,-0.0246 c -4.14201,-1.67187 -18.28646,-27.50627 -36.41718,-66.51476 -11.34329,-24.40526 -20.9731,-43.4605 -22.20152,-43.93189 -0.8001,-0.30701 -0.95326,0.76707 -0.95326,6.68512 0,6.00271 -0.17719,7.21132 -1.1924,8.13 -1.58463,1.43408 -3.08932,1.36168 -4.67594,-0.225 -1.22725,-1.22725 -1.30409,-2.17345 -1.30409,-16.06099 0,-13.81159 -0.087,-14.89758 -1.35724,-16.95301 -1.62032,-2.62172 -3.00627,-2.80897 -3.87519,-0.52353 -0.36754,0.96666 -0.63591,10.94973 -0.63591,23.65431 0,23.86564 -0.14589,24.88011 -3.57661,24.88011 -3.70246,0 -3.5958,1.1244 -3.5958,-37.90767 0,-23.47119 0.23313,-36.29409 0.67498,-37.11961 0.88085,-1.64592 4.13843,-1.66411 5.77033,-0.0323 2.8034,2.80339 22.27541,41.35676 36.5927,72.45131 9.24272,20.07345 23.97959,50.64457 27.50274,57.05335 4.69386,8.5384 11.11002,18.57505 12.92396,20.21663 1.76032,1.59306 1.68493,4.54346 -0.14885,5.82793 -1.63173,1.14291 -1.61879,1.14156 -3.53067,0.36986 z m 29.63048,-1.14792 c -2.28669,-2.4481 -8.41266,-12.09782 -12.93552,-20.37619 -3.70665,-6.78439 -16.45983,-33.06432 -21.83315,-44.99065 -16.71189,-37.09264 -28.60174,-62.45417 -41.87885,-89.32926 -13.28615,-26.89329 -14.53168,-29.47334 -21.71942,-44.99064 -10.68474,-23.06685 -15.65244,-34.25916 -26.4808,-59.6615 -6.2677,-14.70347 -12.08415,-28.34737 -12.92544,-30.31979 -12.49063,-29.284276 -17.45293,-39.019059 -24.44379,-47.952434 -4.40345,-5.626999 -4.71458,-6.333674 -3.53199,-8.022055 0.54121,-0.772687 1.63565,-1.404886 2.43207,-1.404886 4.13754,0 9.08668,6.514071 17.33877,22.821342 4.92389,9.730232 7.17851,14.787519 16.71484,37.492203 6.57235,15.64781 21.22605,49.61436 27.84867,64.55181 6.47294,14.59978 20.69601,44.32129 40.40783,84.43896 5.19815,10.57931 11.1145,22.99699 13.14746,27.59481 2.03293,4.59783 4.98064,11.05302 6.55046,14.34484 1.5698,3.29184 5.11003,10.97326 7.86717,17.06981 8.25583,18.25512 22.45228,47.84772 25.96259,54.11919 3.89676,6.96187 8.1595,13.71003 11.61818,18.39224 2.78726,3.77323 3.08372,5.33616 1.31572,6.93619 -1.73038,1.56595 -3.54733,1.32814 -5.4548,-0.71399 z m 14.23088,-3.47265 c -6.44191,-5.0672 -22.1842,-36.20288 -53.21709,-105.25473 -2.41755,-5.37934 -6.19609,-13.54014 -8.39677,-18.13515 -2.20068,-4.59502 -4.00124,-8.44727 -4.00124,-8.56058 0,-0.11336 -3.98523,-8.38383 -8.85609,-18.379 -4.87085,-9.99515 -11.07936,-22.86768 -13.79667,-28.60561 -2.7173,-5.73793 -5.31221,-11.01945 -5.76645,-11.73669 -0.45423,-0.71724 -3.17345,-6.43888 -6.04265,-12.71473 -2.86922,-6.27589 -6.25673,-13.52819 -7.52779,-16.11627 -1.27109,-2.58806 -4.84188,-10.51034 -7.93509,-17.60504 -3.09321,-7.09471 -7.03674,-16.12704 -8.76339,-20.07187 -1.72666,-3.94484 -6.28742,-14.65457 -10.13506,-23.7994 -15.39075,-36.579851 -19.93909,-45.783434 -28.45597,-57.580807 -4.02118,-5.570018 -4.20648,-6.078519 -2.78674,-7.647314 2.98821,-3.301927 7.24893,0.167234 13.85233,11.278836 6.04819,10.177363 12.35537,24.092929 27.55545,60.795685 2.97039,7.17242 7.88033,18.6157 10.911,25.42948 3.03066,6.81382 6.62136,14.90204 7.97934,17.97386 5.10833,11.55537 13.70843,29.76874 27.53535,58.31463 16.57119,34.21148 25.28547,52.49572 30.61007,64.22578 31.60996,69.63673 39.55823,85.68994 48.82695,98.61644 2.48579,3.46679 4.51963,6.85777 4.51963,7.53551 0,1.44189 -1.94638,3.39049 -3.3866,3.39049 -0.55099,0 -1.77614,-0.60908 -2.72252,-1.35352 z M 83.423177,392.77664 c -0.55826,-0.79703 -1.015036,-1.7944 -1.015036,-2.21633 0,-0.42195 1.855371,-3.36419 4.123035,-6.53831 2.267664,-3.17412 5.604605,-8.41387 7.415394,-11.64388 4.093117,-7.30105 13.65288,-26.38332 16.49389,-32.92353 1.16837,-2.68967 4.4676,-9.99739 7.33163,-16.23941 5.7948,-12.62952 10.10783,-23.09544 23.13404,-56.13684 4.87768,-12.37243 9.30765,-23.00882 9.84435,-23.6364 1.87196,-2.1889 5.99004,-0.9328 5.99004,1.82708 0,1.85729 -17.97181,46.85924 -28.36955,71.03821 -3.85545,8.96552 -8.01526,18.64828 -9.24398,21.51726 -3.86201,9.01742 -18.23575,37.50612 -22.688249,44.96797 -2.346451,3.93237 -5.20042,8.11356 -6.342175,9.29154 -2.495818,2.57505 -5.161137,2.85168 -6.673389,0.69264 z m 337.114883,-0.0172 c -2.90702,-2.57731 -11.95444,-18.51831 -21.29724,-37.52453 -4.98883,-10.1488 -9.07058,-18.57164 -9.07058,-18.71739 0,-1.48287 -44.83209,-98.42325 -54.27708,-117.36327 -7.2525,-14.54344 -22.70005,-47.14877 -29.3473,-61.94366 -8.71561,-19.39851 -9.63793,-21.52723 -19.0696,-44.01258 -10.88921,-25.960198 -19.56553,-43.905013 -25.31931,-52.366667 -2.39278,-3.518883 -4.3505,-6.774351 -4.3505,-7.234375 0,-1.216725 2.17782,-2.994634 3.66823,-2.994634 1.60366,0 5.27339,3.774056 8.24218,8.4765 3.18326,5.042165 10.73368,20.285889 15.01779,30.319781 8.58344,20.103505 13.49819,31.771945 13.49819,32.047075 0,0.56287 5.38,12.9933 10.11743,23.37618 2.61805,5.73793 7.68912,16.8878 11.269,24.77747 3.57988,7.88965 12.29874,26.22823 19.37523,40.7524 11.39165,23.38075 27.77775,57.66748 31.94085,66.83393 0.81439,1.79309 4.56611,10.15548 8.33715,18.58308 20.40693,45.60548 30.08573,65.69808 38.43355,79.78563 2.52108,4.25449 5.38279,8.65573 6.3594,9.78058 3.44555,3.96856 3.68585,6.62166 0.74245,8.19692 -1.84095,0.98525 -2.40172,0.88381 -4.26984,-0.77244 z M 71.356233,384.86987 c -1.575193,-1.57519 -0.625587,-4.42302 3.457204,-10.36784 2.278089,-3.31707 5.784802,-8.81852 7.792694,-12.22543 4.283738,-7.26844 13.153028,-26.57839 14.105418,-30.7099 0.42018,-1.82279 0.667408,-23.94058 0.677537,-60.61384 0.01232,-46.95506 0.177683,-57.96503 0.881835,-58.92796 0.975285,-1.33381 4.051399,-1.58074 5.214369,-0.41858 0.56449,0.5641 0.85194,12.04025 1.09215,43.60506 0.25701,33.77199 0.50788,43.15836 1.18522,44.34618 1.02778,1.80234 1.87048,1.62312 3.6654,-0.77949 1.29287,-1.73057 1.35608,-2.81782 1.66978,-28.71281 0.35312,-29.15298 0.34166,-29.06778 3.91223,-29.06778 3.41784,0 3.56723,0.76179 3.34504,17.05525 -0.20158,14.78732 0.0424,16.85076 1.99321,16.85076 0.71849,0 4.9808,-9.00905 8.02652,-16.96516 1.16948,-3.05496 4.76484,-11.85749 7.98972,-19.56115 8.71022,-20.80729 16.04266,-38.80816 18.05583,-44.32646 0.98124,-2.68964 2.50207,-6.75363 3.37967,-9.03108 0.87757,-2.27742 2.47997,-6.90162 3.56088,-10.27597 2.07519,-6.47834 3.76791,-8.56235 6.20934,-7.64473 2.51058,0.94361 2.78571,2.15363 1.52443,6.70474 -2.57404,9.28806 -12.6047,35.59907 -22.13647,58.06528 -2.20623,5.2 -8.50084,20.6044 -13.98801,34.232 -13.2045,32.7938 -15.18964,37.5127 -25.9214,61.61763 -9.965058,22.38281 -13.611823,29.91487 -19.536824,40.35137 -3.880415,6.8351 -10.665762,16.93693 -11.506146,17.13004 -1.769141,0.40656 -4.076777,0.24275 -4.649627,-0.33013 z m 362.112567,0.20997 c -2.40441,-0.91018 -6.12038,-6.3525 -13.34369,-19.54299 -4.7536,-8.68054 -7.17751,-13.81548 -14.7525,-31.25261 -3.02714,-6.96826 -6.55069,-14.89053 -7.8301,-17.60504 -3.19605,-6.78098 -5.07452,-10.89451 -13.56865,-29.71296 -15.74821,-34.88962 -21.79742,-47.65981 -40.92518,-86.39507 -6.64086,-13.44831 -15.00539,-30.90665 -18.58781,-38.79629 -9.47346,-20.86359 -19.11601,-42.70473 -22.22654,-50.34498 -4.56811,-11.22036 -13.69098,-31.506573 -16.79351,-37.3431 -1.61714,-3.042182 -4.55684,-7.935927 -6.5327,-10.874991 -3.06706,-4.562262 -3.48734,-5.540159 -2.87368,-6.686779 1.01713,-1.90054 3.59353,-2.388323 5.61587,-1.063239 4.80476,3.1482 13.04871,19.917689 32.55039,66.212719 10.39505,24.67679 19.18237,43.77027 33.90968,73.68034 23.37589,47.47469 29.95785,60.63957 30.3175,60.63957 0.22894,0 0.89394,-1.00188 1.47788,-2.22641 1.28725,-2.69943 3.24415,-3.46746 5.33849,-2.09518 1.48638,0.9739 1.53722,1.31283 1.76119,11.74344 0.20824,9.6974 0.36399,10.91935 1.6038,12.58101 1.76609,2.36703 3.23499,2.65335 3.74993,0.73092 0.22081,-0.82427 0.40541,-8.8908 0.41032,-17.92565 0.01,-16.23121 0.0261,-16.43911 1.45806,-17.44202 1.91523,-1.34149 2.84978,-1.28037 4.41918,0.28905 1.26554,1.26554 1.30418,2.17599 1.30771,30.80881 0.002,17.9114 0.26319,30.43917 0.66418,31.88283 0.63325,2.27979 3.55378,5.02833 4.42125,4.16084 1.06765,-1.06765 1.34196,-11.42393 1.25514,-47.38783 -0.0761,-31.50298 0.0707,-39.09128 0.77303,-39.93735 1.05323,-1.26909 4.18733,-1.37284 5.18425,-0.17153 0.51593,0.62165 0.77513,17.09353 0.90037,57.21637 l 0.17596,56.34341 3.46874,8.1034 c 6.05716,14.1503 13.64307,28.01231 19.03665,34.78637 2.84778,3.57665 3.16384,4.98969 1.44606,6.4649 -1.79724,1.54348 -2.35222,1.71241 -3.81119,1.16014 z M 258.59444,350.02387 c -1.10828,-1.10826 -1.16676,-4.6616 -1.14106,-69.34169 0.0222,-56.79469 0.17645,-68.35357 0.92193,-69.25202 1.04256,-1.25637 4.0372,-1.42787 5.16907,-0.29597 0.59868,0.59865 0.78245,16.89916 0.78245,69.39549 0,61.50614 -0.10622,68.71919 -1.02462,69.63769 -1.35589,1.35589 -3.26664,1.29763 -4.70777,-0.14343 z m 13.94322,-10.11778 c -1.10497,-0.80795 -1.16278,-3.51699 -1.08801,-50.97287 0.0557,-35.38309 0.28984,-50.37365 0.79615,-50.98373 1.02499,-1.23503 3.43231,-1.06672 4.69472,0.32823 0.98423,1.08756 1.07911,5.55549 1.07911,50.81241 0,44.23972 -0.11114,49.73111 -1.02462,50.64464 -1.24812,1.24812 -2.89801,1.31152 -4.45735,0.17127 z m -28.05465,-11.48751 c -1.06748,-1.17956 -1.13328,-5.68256 -1.07876,-73.82559 0.0574,-71.90723 0.07,-72.58144 1.37555,-73.88691 1.22099,-1.22098 1.44786,-1.24459 3.09683,-0.32226 1.56497,0.8753 1.82908,1.50323 2.19216,5.21195 0.22697,2.31922 0.44712,35.20016 0.48903,73.06875 0.073,65.9283 0.0256,68.89783 -1.11619,69.9311 -1.58584,1.43517 -3.56347,1.36454 -4.95862,-0.17694 z M 85.415937,327.79996 c -1.0175,-1.1243 -1.10331,-4.59851 -1.065974,-43.1607 0.03672,-37.8646 0.144167,-42.05239 1.106538,-43.11588 1.397338,-1.54404 3.15741,-1.49251 4.790147,0.14022 1.299082,1.29909 1.315569,1.91965 1.141065,42.96639 -0.16955,39.90559 -0.228942,41.70568 -1.419172,43.02048 -1.536823,1.6978 -3.10482,1.74928 -4.552604,0.14959 z m 348.583993,-11.329 c -0.95663,-1.1662 -0.94657,-0.71992 -0.86734,-38.42367 0.0636,-30.29327 0.1932,-34.46942 1.0968,-35.37309 1.45399,-1.45399 4.64179,-1.31621 5.47281,0.23659 0.44157,0.82505 0.67497,13.5302 0.67497,36.7391 0,33.54231 -0.0651,35.53677 -1.1924,36.55701 -1.40825,1.27444 -4.23782,1.41856 -5.18484,0.26406 z m -202.78196,-5.41628 -1.44917,-1.01503 v -46.17792 c 0,-50.38351 -0.18729,-47.97458 3.69469,-47.52577 3.52259,0.40727 3.47485,-0.32293 3.16389,48.38121 -0.2621,41.05055 -0.38171,45.01581 -1.39158,46.13171 -1.34462,1.48579 -2.13276,1.52615 -4.01783,0.20578 z m -39.9619,-8.80802 c -1.93026,-1.93026 -1.45937,-3.42361 6.05202,-19.19265 15.34745,-32.21967 19.44515,-39.17915 22.58491,-38.35809 3.31856,0.86784 3.35542,1.18555 3.35542,28.91819 0,19.20199 -0.2001,26.00629 -0.78244,26.5885 -1.32099,1.321 -4.30476,0.93359 -5.37362,-0.69769 -0.78309,-1.19513 -0.96323,-4.09679 -0.93566,-15.06986 0.0343,-13.64275 -0.23091,-15.33018 -2.28491,-14.54194 -2.17752,0.83558 -3.24692,4.45457 -3.31102,11.20478 -0.19394,20.43354 -0.33483,21.19125 -3.93931,21.19125 -2.65228,0 -3.58622,-1.62532 -3.58622,-6.24094 0,-2.30542 -0.27677,-4.19169 -0.61506,-4.19169 -1.03564,0 -2.63794,2.7581 -3.68997,6.35163 -1.4845,5.07082 -4.70285,6.8098 -7.47414,4.03851 z M 71.686487,295.62367 c -0.883782,-1.26175 -1.015035,-5.41682 -1.015035,-32.13081 0,-26.71399 0.131352,-30.86906 1.015035,-32.13083 1.118245,-1.59651 4.07801,-1.96363 5.374948,-0.66669 1.127437,1.12744 1.127437,64.46758 0,65.59504 -1.296938,1.29694 -4.256703,0.9298 -5.374948,-0.66671 z m 348.904583,0.25676 c -0.97681,-1.07938 -1.07911,-4.61981 -1.07911,-37.34712 0,-31.66755 0.12593,-36.33457 1.01501,-37.60388 1.2408,-1.77146 3.61421,-1.87455 5.10983,-0.2218 1.01915,1.12613 1.10792,4.22871 1.07749,37.65522 -0.033,36.23632 -0.0404,36.43394 -1.40786,37.56901 -1.76579,1.46573 -3.35811,1.44838 -4.71536,-0.0513 z m 26.73358,0 c -0.94293,-1.04192 -1.07913,-3.22826 -1.07913,-17.3219 0,-9.87153 0.26189,-16.61878 0.675,-17.39068 0.77369,-1.44571 4.44084,-1.75292 5.71498,-0.47876 1.17963,1.17961 1.06415,33.67586 -0.12519,35.24268 -1.12823,1.48622 -3.81826,1.45958 -5.18563,-0.0513 z M 58.709935,286.09998 c -0.942262,-1.04116 -1.094858,-3.47209 -1.20408,-19.18077 -0.133816,-19.25561 -0.0099,-20.05334 3.092276,-20.05334 2.783561,0 3.550703,1.58256 3.578452,7.382 0.134063,28.04021 0.01479,30.71277 -1.410768,31.90332 -1.740111,1.45212 -2.70645,1.43992 -4.05588,-0.0513 z m -12.815948,0.0877 c -2.350196,-0.83994 -2.608145,-2.21189 -2.608145,-13.87189 0,-9.32321 0.189759,-11.7379 1.015036,-12.91612 1.138724,-1.62577 4.256629,-1.97574 5.393875,-0.60543 0.427572,0.51518 0.776038,5.61293 0.894896,13.09124 0.193702,12.19123 0.187541,12.25325 -1.344673,13.5011 -1.620119,1.31939 -1.78829,1.35958 -3.350989,0.8011 z M 460.3654,284.79577 c -0.95554,-1.05587 -1.07911,-3.5198 -1.07911,-21.51726 0,-19.62444 0.0461,-20.37095 1.33743,-21.6623 0.93159,-0.93159 1.77249,-1.20415 2.77117,-0.89824 3.1147,0.95409 3.06383,0.58073 3.06383,22.48212 0,17.98408 -0.13603,20.87492 -1.02465,21.76346 -1.37404,1.37407 -3.74433,1.29561 -5.06867,-0.16783 z M 4.5906231,273.05834 c -1.3236522,-1.46262 -1.3815655,-3.36099 -0.1537784,-5.04035 0.8643132,-1.1822 1.8725472,-1.27082 15.2871963,-1.34362 16.079917,-0.0872 17.245331,0.14861 17.574919,3.55859 0.384643,3.97968 0.228203,4.01778 -16.487233,4.01778 -13.8412606,0 -15.2347045,-0.10252 -16.2211286,-1.1924 z M 473.75408,272.92132 c -1.7828,-1.66093 -1.79179,-2.5952 -0.0463,-4.81425 l 1.38073,-1.75534 13.02293,0.20036 c 12.7865,0.19666 13.04556,0.2282 14.2682,1.73964 1.58396,1.95804 1.57046,3.02574 -0.0589,4.65505 -1.21631,1.2163 -2.17345,1.30406 -14.22189,1.30406 -12.09881,0 -13.00829,-0.0843 -14.34483,-1.32947 z"
       id="path314" /></g></svg>
